<?xml version="1.0" standalone="no"?>
<!DOCTYPE svg PUBLIC "-//W3C//DTD SVG 20010904//EN"
 "http://www.w3.org/TR/2001/REC-SVG-20010904/DTD/svg10.dtd">
<svg version="1.0" xmlns="http://www.w3.org/2000/svg"
 width="1024.000000pt" height="1024.000000pt" viewBox="0 0 1024.000000 1024.000000"
 preserveAspectRatio="xMidYMid meet">
<metadata>
Created by potrace 1.11, written by Peter Selinger 2001-2013
</metadata>
<g transform="translate(0.000000,1024.000000) scale(0.100000,-0.100000)"
fill="#000000" stroke="none">
<path d="M5064 9393 c-12 -2 -32 -15 -45 -29 l-24 -25 0 -455 c0 -250 3 -464
7 -475 9 -24 65 -49 109 -49 34 0 98 34 100 53 1 7 2 217 3 467 l1 455 -25 27
c-25 28 -76 40 -126 31z"/>
<path d="M3685 8986 c-32 -14 -69 -51 -77 -76 -5 -17 7 -49 75 -190 25 -52 86
-183 137 -290 50 -107 98 -201 105 -209 35 -36 134 -10 168 43 22 33 22 38
-12 110 -16 33 -57 119 -90 189 -34 71 -61 130 -61 131 0 18 -143 296 -153
297 -6 0 -23 2 -37 4 -14 3 -38 -2 -55 -9z"/>
<path d="M6494 8957 c-22 -9 -33 -29 -102 -177 -22 -47 -60 -128 -85 -180
-164 -347 -161 -336 -131 -378 34 -50 135 -70 166 -34 9 9 30 49 48 87 43 92
97 207 155 330 95 201 115 246 115 265 0 17 -53 80 -68 80 -4 0 -23 4 -42 9
-20 4 -44 4 -56 -2z"/>
<path d="M2556 8236 c-19 -19 -37 -49 -41 -67 -7 -31 -3 -37 62 -98 63 -61
301 -283 327 -306 6 -5 32 -29 58 -52 50 -45 69 -48 115 -18 29 19 63 73 63
99 0 20 -44 66 -230 236 -63 58 -124 114 -136 125 -136 130 -159 139 -218 81z"/>
<path d="M7539 8163 c-46 -42 -116 -106 -155 -142 -38 -36 -111 -104 -162
-150 -81 -74 -92 -88 -92 -118 0 -45 52 -102 100 -109 32 -4 41 1 101 58 37
35 95 90 130 122 286 264 289 268 289 301 0 40 -32 83 -76 101 -19 8 -37 14
-42 14 -5 0 -47 -34 -93 -77z"/>
<path d="M4535 7979 c-112 -21 -207 -75 -304 -170 -36 -36 -82 -88 -100 -115
l-34 -49 -121 2 c-144 3 -220 -12 -326 -64 -134 -65 -243 -203 -286 -363 -10
-36 -20 -68 -23 -72 -3 -4 -37 -8 -76 -9 -128 -4 -248 -42 -331 -106 -40 -30
-79 -89 -101 -150 -21 -61 -24 -191 -7 -268 28 -129 28 -125 9 -125 -29 0
-103 -50 -145 -97 -65 -74 -84 -138 -84 -273 0 -63 6 -134 13 -158 12 -41 11
-45 -16 -79 -57 -71 -74 -99 -94 -153 -27 -72 -29 -83 -30 -161 0 -77 23 -152
73 -230 l35 -55 -27 -39 c-69 -100 -131 -248 -148 -349 -13 -79 -5 -199 18
-266 36 -108 121 -218 227 -291 l42 -29 0 -83 c0 -45 3 -92 5 -103 2 -12 7
-38 10 -58 17 -108 73 -221 147 -296 50 -51 172 -120 214 -120 35 0 42 -13 48
-90 7 -101 38 -195 86 -261 39 -55 99 -109 120 -109 15 0 14 -10 -5 -61 -19
-53 -43 -156 -50 -212 -3 -23 -7 -53 -10 -67 -2 -14 -4 -68 -5 -120 -2 -437
237 -745 705 -913 l90 -32 47 -83 c240 -418 625 -739 969 -808 89 -18 129 -22
215 -22 283 0 574 121 779 325 132 132 223 286 288 490 l33 103 50 16 c27 9
96 38 153 65 352 169 566 409 621 699 10 56 8 261 -3 315 -27 123 -63 224
-123 342 l-31 62 66 22 c116 38 222 98 293 169 100 99 141 193 140 325 0 44
-2 89 -5 100 -14 66 -19 84 -34 123 l-15 44 34 26 c213 164 305 357 253 532
-16 54 -51 118 -85 156 -19 20 -18 21 26 100 143 249 129 493 -38 668 l-48 51
30 90 c29 86 43 135 56 200 14 65 13 290 0 355 -54 250 -233 446 -507 555 -66
26 -68 28 -68 64 -4 277 -81 474 -225 577 -27 19 -72 42 -100 50 -66 21 -217
25 -297 8 -34 -7 -66 -13 -70 -14 -3 0 -27 30 -52 68 -88 133 -231 264 -356
327 -47 24 -150 59 -205 71 -51 10 -218 13 -265 4 -25 -5 -59 -10 -77 -13 -60
-9 -188 -57 -285 -106 -59 -30 -100 -45 -104 -39 -25 40 -255 154 -349 173
-56 11 -182 14 -230 4z m232 -373 c62 -32 101 -93 128 -196 51 -201 145 -358
245 -410 87 -45 192 -54 262 -22 46 20 116 90 143 142 l17 32 -31 -7 c-48 -10
-131 -9 -176 4 -87 23 -146 115 -141 219 9 153 195 259 429 245 65 -4 77 -5
147 -22 163 -38 320 -149 383 -270 l26 -51 -37 -19 c-57 -29 -104 -70 -277
-240 -281 -276 -351 -319 -500 -308 -207 15 -449 159 -616 367 -84 104 -187
195 -238 210 -70 20 -79 -51 -27 -225 72 -242 241 -423 466 -498 93 -31 135
-39 230 -43 l75 -3 24 -48 c44 -90 63 -193 48 -263 -26 -124 -181 -168 -457
-130 -156 22 -245 9 -335 -49 -95 -61 -130 -119 -130 -221 0 -66 4 -82 33
-135 66 -122 218 -275 274 -275 8 0 22 8 31 18 15 16 13 22 -28 81 -80 114
-108 229 -71 285 48 74 201 79 421 15 166 -50 341 25 419 180 23 43 36 85 52
156 9 44 12 263 4 300 l-7 32 71 -1 c57 0 81 5 122 27 64 33 144 105 220 199
33 40 61 75 65 78 3 3 21 27 41 53 66 86 161 188 218 232 140 107 284 137 403
82 196 -89 204 -295 18 -405 -37 -22 -57 -26 -115 -26 -88 0 -159 30 -230 98
-68 65 -90 61 -94 -17 -4 -70 26 -144 79 -195 42 -41 134 -87 214 -107 71 -18
66 -17 275 -11 211 6 333 -14 416 -68 60 -39 163 -219 179 -316 19 -104 6
-199 -36 -281 -24 -47 -36 -55 -57 -36 -39 33 -114 51 -207 50 -49 -1 -98 -3
-109 -5 -16 -3 -18 5 -20 77 -4 129 -27 194 -95 268 -37 41 -142 92 -141 69 0
-4 10 -34 21 -67 24 -72 33 -193 17 -254 -18 -70 -78 -123 -164 -146 -121 -31
-192 -71 -269 -149 -41 -42 -80 -93 -94 -124 l-25 -53 -19 31 c-43 68 -143
100 -234 73 -26 -7 -45 -8 -48 -3 -14 22 -37 118 -60 245 -9 53 -6 172 5 217
36 132 113 189 257 190 105 0 180 -91 188 -227 l4 -70 32 0 c28 0 34 5 41 30
14 47 10 214 -6 273 -30 111 -110 203 -203 236 -163 58 -381 -65 -462 -259
-42 -100 -49 -158 -45 -388 4 -217 -3 -274 -46 -362 -13 -27 -40 -65 -60 -85
-73 -73 -247 -110 -314 -65 -64 42 -102 144 -105 280 -1 43 -3 80 -5 82 -7 7
-78 -128 -92 -176 -48 -162 38 -341 204 -428 110 -58 243 -68 327 -25 42 21
124 102 216 212 67 81 85 96 127 111 63 21 171 14 223 -14 40 -21 104 -110
114 -159 7 -30 8 -29 45 48 90 191 240 317 440 369 81 21 111 25 215 25 95 0
103 -1 175 -20 225 -61 361 -293 315 -538 -16 -87 -69 -116 -230 -126 -63 -4
-237 14 -287 30 -14 4 -18 -1 -19 -18 -2 -33 -8 -76 -25 -197 -6 -41 -5 -44
12 -36 134 55 363 83 434 53 141 -61 156 -306 26 -426 -55 -51 -102 -66 -202
-65 -102 1 -199 29 -280 81 -68 44 -99 78 -149 164 -116 197 -110 386 17 524
41 45 133 113 171 127 10 4 17 18 18 34 1 15 3 41 5 57 l3 29 -55 -7 c-152
-18 -274 -99 -360 -239 -24 -39 -40 -55 -47 -49 -29 21 -99 35 -148 29 -93
-11 -197 -94 -296 -236 -94 -135 -126 -154 -244 -153 -119 1 -189 48 -288 195
-30 44 -57 75 -63 71 -7 -4 -9 -43 -5 -115 4 -86 10 -119 30 -162 62 -136 200
-218 372 -219 117 -1 169 25 278 138 169 177 224 168 350 -64 69 -127 135
-216 176 -240 27 -15 28 -16 14 -52 -25 -62 10 -144 88 -207 42 -35 56 -37 63
-10 9 36 67 93 110 107 90 29 204 -26 268 -130 48 -77 35 -191 -26 -241 -67
-55 -252 -43 -566 36 -30 8 -71 17 -90 20 -19 3 -42 8 -51 11 -10 2 -30 7 -45
9 -16 2 -40 6 -54 9 -14 3 -41 8 -60 11 -19 4 -100 8 -180 10 -120 3 -158 1
-220 -15 -190 -50 -337 -165 -450 -350 -40 -68 -102 -215 -120 -286 l-10 -40
-129 -2 -129 -2 -12 67 c-26 138 -83 251 -177 354 -150 161 -387 268 -609 273
-181 4 -292 -37 -484 -179 -201 -149 -283 -175 -337 -108 -29 36 -50 136 -44
209 1 7 26 15 56 19 69 8 166 56 198 98 51 68 71 117 136 340 22 76 52 158 65
182 35 58 98 110 165 136 74 27 218 29 304 3 20 -6 21 -4 5 33 -35 80 -167
150 -303 159 -91 6 -211 -41 -282 -112 -68 -69 -129 -190 -148 -299 -4 -22
-19 -62 -33 -90 -105 -211 -290 -292 -466 -204 -91 45 -125 158 -88 293 l8 29
104 2 c241 4 347 89 341 273 -6 201 -180 339 -436 346 -42 1 -43 0 -36 -70 1
-6 27 -21 59 -34 111 -46 204 -169 186 -247 -24 -101 -214 -161 -334 -106
-242 112 -251 537 -12 639 52 22 68 25 147 29 161 8 331 -51 513 -179 116 -80
238 -67 347 40 25 24 49 44 52 44 4 0 3 -3 0 -6 -8 -8 28 -62 57 -87 53 -44
137 -67 301 -82 298 -27 413 -63 502 -156 75 -80 108 -242 73 -368 -5 -19 -8
-37 -6 -39 4 -4 103 117 158 193 68 95 86 229 43 320 -55 114 -228 204 -460
239 -27 4 -61 10 -75 13 -14 2 -106 7 -205 9 -212 6 -249 16 -299 77 -55 69
-87 158 -126 358 -6 31 -17 65 -25 75 -27 37 -38 2 -41 -133 -1 -70 -4 -135
-6 -143 -3 -8 -10 -34 -16 -56 -14 -49 -56 -94 -88 -94 -12 0 -55 25 -96 56
-134 102 -196 121 -424 129 -170 6 -239 16 -334 51 -150 56 -193 149 -108 235
44 43 90 61 168 64 107 4 164 -20 433 -182 48 -29 92 -53 96 -53 5 0 9 26 9
58 -2 205 -139 355 -409 445 -69 23 -111 34 -146 36 -15 1 -50 67 -58 107 -7
40 12 80 49 103 38 24 128 47 179 46 34 0 37 2 31 20 -65 198 -57 307 25 362
46 31 111 30 176 -2 84 -40 136 -100 161 -184 9 -31 19 -49 26 -45 24 15 174
13 238 -2 236 -59 355 -245 228 -360 -30 -28 -93 -59 -137 -69 -142 -31 -253
34 -408 238 -82 108 -104 119 -123 62 -15 -44 -11 -145 7 -210 61 -214 256
-371 465 -376 231 -5 436 163 473 390 7 45 7 146 0 186 -15 77 -77 167 -158
228 -92 69 -300 134 -438 136 -19 1 -30 10 -43 39 -27 55 -31 85 -30 207 1 89
5 119 22 157 29 65 92 131 157 163 56 27 160 53 205 50 23 -1 25 -4 20 -41 -7
-63 -5 -235 3 -283 35 -194 181 -362 400 -460 221 -99 374 -97 393 5 3 19 5
36 3 38 -2 2 -42 21 -89 43 -308 143 -471 343 -473 577 -1 219 60 353 203 444
102 66 234 87 307 48z m1609 -4092 c113 -24 247 -94 335 -176 205 -192 280
-510 180 -763 -174 -436 -683 -596 -1068 -334 -185 125 -300 346 -301 574 -2
455 409 791 854 699z m-1992 -48 c217 -51 405 -217 485 -430 32 -87 42 -143
42 -236 0 -101 -11 -163 -45 -254 -123 -327 -484 -508 -826 -416 -231 62 -421
253 -486 488 -21 76 -25 233 -9 314 52 244 231 443 470 522 108 35 249 39 369
12z m900 -708 c2 -1 15 -43 30 -93 90 -293 271 -526 498 -641 89 -45 229 -82
315 -84 l22 0 -20 -72 c-106 -380 -356 -637 -681 -697 -186 -35 -423 -5 -596
75 -255 117 -462 349 -581 651 l-20 51 87 -3 c319 -11 573 145 703 431 32 70
74 208 84 275 4 24 9 51 10 59 2 8 4 26 4 39 1 23 3 23 72 18 39 -3 72 -7 73
-9z"/>
<path d="M5341 2150 c-27 -28 -69 -59 -94 -70 -55 -25 -150 -38 -197 -29 -39
8 -45 6 -37 -15 9 -23 133 -57 205 -57 112 0 182 34 218 104 19 35 12 84 -14
103 -25 20 -28 18 -81 -36z"/>
<path d="M5591 1875 c-18 -8 -54 -30 -80 -49 -63 -46 -96 -62 -171 -81 -81
-21 -116 -25 -263 -29 -128 -3 -159 -14 -109 -40 97 -50 258 -68 381 -42 59
13 64 13 82 -5 10 -10 19 -28 19 -39 0 -31 36 -60 75 -60 81 0 150 112 171
278 3 25 -2 38 -20 57 -29 29 -38 30 -85 10z"/>
<path d="M2076 7155 c-28 -28 -50 -96 -42 -129 4 -16 54 -42 228 -118 248
-107 243 -107 284 -34 29 52 27 106 -6 123 -48 25 -418 183 -428 183 -6 0 -22
-11 -36 -25z"/>
<path d="M7990 7079 c-269 -117 -282 -123 -290 -143 -10 -29 8 -90 40 -127 27
-34 28 -34 66 -20 22 8 66 26 99 41 33 15 119 53 192 85 144 62 151 70 128
139 -17 50 -40 82 -62 88 -10 3 -88 -26 -173 -63z"/>
</g>
</svg>
